<svg width="147" height="35" viewBox="0 0 147 35" fill="none" xmlns="http://www.w3.org/2000/svg">
<path d="M9.89436 26.456C8.14636 26.456 6.59469 26.1077 5.23936 25.411C3.88402 24.7143 2.82002 23.7517 2.04736 22.523C1.27469 21.2817 0.888358 19.8567 0.888358 18.248C0.888358 16.6393 1.27469 15.2143 2.04736 13.973C2.82002 12.719 3.88402 11.7373 5.23936 11.028C6.59469 10.306 8.14636 9.945 9.89436 9.945C11.6297 9.945 13.1624 10.306 14.4924 11.028C15.835 11.7373 16.88 12.719 17.6274 13.973C18.3874 15.2143 18.7674 16.6393 18.7674 18.248C18.7674 19.8567 18.3874 21.2817 17.6274 22.523C16.88 23.7517 15.835 24.7143 14.4924 25.411C13.1624 26.1077 11.6297 26.456 9.89436 26.456ZM9.89436 20.965C10.4137 20.965 10.8634 20.8573 11.2434 20.642C11.6234 20.414 11.9147 20.091 12.1174 19.673C12.32 19.255 12.4214 18.7673 12.4214 18.21C12.4214 17.6653 12.32 17.184 12.1174 16.766C11.9147 16.348 11.6234 16.025 11.2434 15.797C10.8634 15.5563 10.4137 15.436 9.89436 15.436C9.36236 15.436 8.90636 15.5563 8.52636 15.797C8.14636 16.025 7.84869 16.348 7.63336 16.766C7.41803 17.184 7.31036 17.6653 7.31036 18.21C7.31036 18.7673 7.41803 19.255 7.63336 19.673C7.84869 20.091 8.14636 20.414 8.52636 20.642C8.90636 20.8573 9.36236 20.965 9.89436 20.965Z" fill="white"/>
<path d="M9.89436 26.456C8.14636 26.456 6.59469 26.1077 5.23936 25.411C3.88402 24.7143 2.82002 23.7517 2.04736 22.523C1.27469 21.2817 0.888358 19.8567 0.888358 18.248C0.888358 16.6393 1.27469 15.2143 2.04736 13.973C2.82002 12.719 3.88402 11.7373 5.23936 11.028C6.59469 10.306 8.14636 9.945 9.89436 9.945C11.6297 9.945 13.1624 10.306 14.4924 11.028C15.835 11.7373 16.88 12.719 17.6274 13.973C18.3874 15.2143 18.7674 16.6393 18.7674 18.248C18.7674 19.8567 18.3874 21.2817 17.6274 22.523C16.88 23.7517 15.835 24.7143 14.4924 25.411C13.1624 26.1077 11.6297 26.456 9.89436 26.456ZM9.89436 20.965C10.4137 20.965 10.8634 20.8573 11.2434 20.642C11.6234 20.414 11.9147 20.091 12.1174 19.673C12.32 19.255 12.4214 18.7673 12.4214 18.21C12.4214 17.6653 12.32 17.184 12.1174 16.766C11.9147 16.348 11.6234 16.025 11.2434 15.797C10.8634 15.5563 10.4137 15.436 9.89436 15.436C9.36236 15.436 8.90636 15.5563 8.52636 15.797C8.14636 16.025 7.84869 16.348 7.63336 16.766C7.41803 17.184 7.31036 17.6653 7.31036 18.21C7.31036 18.7673 7.41803 19.255 7.63336 19.673C7.84869 20.091 8.14636 20.414 8.52636 20.642C8.90636 20.8573 9.36236 20.965 9.89436 20.965Z" fill="white"/>
<path d="M31.6859 9.945C32.8132 9.945 33.9089 10.1667 34.9729 10.61C36.0369 11.0533 36.9109 11.7627 37.5949 12.738C38.2915 13.7133 38.6399 14.9863 38.6399 16.557V26H31.8949V17.64C31.8949 16.69 31.6669 15.9617 31.2109 15.455C30.7549 14.9357 30.1469 14.676 29.3869 14.676C28.8929 14.676 28.4305 14.8027 27.9999 15.056C27.5692 15.3093 27.2209 15.664 26.9549 16.12C26.7015 16.576 26.5749 17.108 26.5749 17.716V26H19.8489V10.401H26.5749V12.51C26.7395 12.092 27.0625 11.693 27.5439 11.313C28.0252 10.9203 28.6269 10.5973 29.3489 10.344C30.0709 10.078 30.8499 9.945 31.6859 9.945ZM40.4431 26V10.401H47.1501V26H40.4431ZM43.8821 8.007C42.8561 8.007 41.9821 7.646 41.2601 6.924C40.5508 6.202 40.1961 5.34066 40.1961 4.34C40.1961 3.33933 40.5508 2.47166 41.2601 1.737C41.9821 1.00233 42.8561 0.634999 43.8821 0.634999C44.5534 0.634999 45.1678 0.805999 45.7251 1.148C46.2824 1.47733 46.7321 1.92067 47.0741 2.478C47.4161 3.03533 47.5871 3.656 47.5871 4.34C47.5871 5.34066 47.2198 6.202 46.4851 6.924C45.7631 7.646 44.8954 8.007 43.8821 8.007ZM71.9038 9.945C73.0945 9.945 74.1522 10.1857 75.0768 10.667C76.0142 11.1483 76.7488 11.8957 77.2808 12.909C77.8255 13.9097 78.0978 15.208 78.0978 16.804V26H71.4858V17.754C71.4858 16.8927 71.3465 16.1643 71.0678 15.569C70.8018 14.9737 70.2318 14.676 69.3578 14.676C68.8005 14.676 68.3318 14.8153 67.9518 15.094C67.5718 15.3727 67.2868 15.7463 67.0968 16.215C66.9195 16.671 66.8308 17.184 66.8308 17.754V26H60.6748V17.754C60.6748 16.8927 60.5355 16.1643 60.2568 15.569C59.9908 14.9737 59.4272 14.676 58.5658 14.676C58.0085 14.676 57.5398 14.8153 57.1598 15.094C56.7798 15.36 56.4948 15.7273 56.3048 16.196C56.1148 16.652 56.0198 17.1713 56.0198 17.754V26H49.3508V10.401H56.0198V12.567C56.1718 12.1743 56.5138 11.7753 57.0458 11.37C57.5905 10.9647 58.2428 10.629 59.0028 10.363C59.7755 10.0843 60.5798 9.945 61.4158 9.945C62.3405 9.945 63.1068 10.059 63.7148 10.287C64.3355 10.515 64.8485 10.838 65.2538 11.256C65.6718 11.674 66.0202 12.1553 66.2988 12.7C66.4762 12.282 66.8308 11.864 67.3628 11.446C67.8948 11.0153 68.5598 10.6607 69.3578 10.382C70.1558 10.0907 71.0045 9.945 71.9038 9.945ZM91.5899 26V23.663C91.4632 23.9037 91.1782 24.252 90.7349 24.708C90.2916 25.1513 89.7026 25.5567 88.9679 25.924C88.2459 26.2787 87.3972 26.456 86.4219 26.456C84.8766 26.456 83.5402 26.076 82.4129 25.316C81.2856 24.556 80.4116 23.549 79.7909 22.295C79.1829 21.041 78.8789 19.6793 78.8789 18.21C78.8789 16.7407 79.1829 15.379 79.7909 14.125C80.4116 12.871 81.2856 11.864 82.4129 11.104C83.5402 10.3313 84.8766 9.945 86.4219 9.945C87.3466 9.945 88.1509 10.0843 88.8349 10.363C89.5316 10.6417 90.1016 10.971 90.5449 11.351C91.0009 11.731 91.3239 12.092 91.5139 12.434V10.401H98.2019V26H91.5899ZM85.4719 18.21C85.4719 18.7673 85.6049 19.2803 85.8709 19.749C86.1369 20.205 86.4979 20.566 86.9539 20.832C87.4099 21.098 87.9292 21.231 88.5119 21.231C89.0946 21.231 89.6076 21.098 90.0509 20.832C90.5069 20.566 90.8616 20.205 91.1149 19.749C91.3809 19.2803 91.5139 18.7673 91.5139 18.21C91.5139 17.6527 91.3809 17.146 91.1149 16.69C90.8616 16.2213 90.5069 15.854 90.0509 15.588C89.6076 15.3093 89.0946 15.17 88.5119 15.17C87.9292 15.17 87.4099 15.3093 86.9539 15.588C86.4979 15.854 86.1369 16.2213 85.8709 16.69C85.6049 17.146 85.4719 17.6527 85.4719 18.21ZM108.734 34.36C107.695 34.36 106.625 34.2713 105.523 34.094C104.421 33.9293 103.369 33.619 102.369 33.163C101.381 32.707 100.532 32.0483 99.8225 31.187L103.68 27.102C103.996 27.4567 104.37 27.786 104.801 28.09C105.231 28.4067 105.744 28.66 106.34 28.85C106.935 29.0527 107.632 29.154 108.43 29.154C109.152 29.154 109.798 29.0463 110.368 28.831C110.938 28.6157 111.381 28.2737 111.698 27.805C112.027 27.349 112.192 26.76 112.192 26.038V25.696H118.804V26.418C118.804 28.166 118.354 29.629 117.455 30.807C116.568 31.985 115.365 32.8717 113.845 33.467C112.325 34.0623 110.621 34.36 108.734 34.36ZM112.192 26V23.663C112.065 23.9037 111.78 24.252 111.337 24.708C110.893 25.1513 110.304 25.5567 109.57 25.924C108.848 26.2787 107.999 26.456 107.024 26.456C105.478 26.456 104.142 26.076 103.015 25.316C101.887 24.556 101.013 23.549 100.393 22.295C99.7845 21.041 99.4805 19.6793 99.4805 18.21C99.4805 16.7407 99.7845 15.379 100.393 14.125C101.013 12.871 101.887 11.864 103.015 11.104C104.142 10.3313 105.478 9.945 107.024 9.945C107.948 9.945 108.753 10.0843 109.437 10.363C110.133 10.6417 110.703 10.971 111.147 11.351C111.603 11.731 111.926 12.092 112.116 12.434V10.401H118.804V26H112.192ZM106.074 18.21C106.074 18.7673 106.207 19.2803 106.473 19.749C106.739 20.205 107.1 20.566 107.556 20.832C108.012 21.098 108.531 21.231 109.114 21.231C109.696 21.231 110.209 21.098 110.653 20.832C111.109 20.566 111.463 20.205 111.717 19.749C111.983 19.2803 112.116 18.7673 112.116 18.21C112.116 17.6527 111.983 17.146 111.717 16.69C111.463 16.2213 111.109 15.854 110.653 15.588C110.209 15.3093 109.696 15.17 109.114 15.17C108.531 15.17 108.012 15.3093 107.556 15.588C107.1 15.854 106.739 16.2213 106.473 16.69C106.207 17.146 106.074 17.6527 106.074 18.21ZM126.447 19.559C126.498 19.977 126.663 20.3443 126.941 20.661C127.233 20.965 127.613 21.2057 128.081 21.383C128.563 21.5477 129.126 21.63 129.772 21.63C130.406 21.63 131.001 21.5857 131.558 21.497C132.116 21.3957 132.61 21.2627 133.04 21.098C133.484 20.9333 133.832 20.7497 134.085 20.547L136.574 24.727C136.296 24.9677 135.878 25.221 135.32 25.487C134.763 25.753 133.997 25.981 133.021 26.171C132.059 26.361 130.824 26.456 129.316 26.456C127.568 26.456 125.998 26.1457 124.604 25.525C123.211 24.9043 122.109 23.9733 121.298 22.732C120.488 21.478 120.082 19.9137 120.082 18.039C120.082 16.519 120.424 15.151 121.108 13.935C121.792 12.7063 122.78 11.7373 124.072 11.028C125.364 10.306 126.929 9.945 128.765 9.945C130.526 9.945 132.052 10.2553 133.344 10.876C134.636 11.484 135.631 12.4087 136.327 13.65C137.024 14.8913 137.372 16.462 137.372 18.362C137.372 18.4633 137.366 18.666 137.353 18.97C137.353 19.274 137.341 19.4703 137.315 19.559H126.447ZM131.045 16.519C131.033 16.101 130.938 15.7273 130.76 15.398C130.596 15.0687 130.355 14.809 130.038 14.619C129.722 14.429 129.335 14.334 128.879 14.334C128.436 14.334 128.043 14.4227 127.701 14.6C127.359 14.7773 127.093 15.0307 126.903 15.36C126.713 15.6767 126.606 16.063 126.58 16.519H131.045Z" fill="white"/>
<path d="M142.8 26.456C141.761 26.456 140.868 26.0887 140.121 25.354C139.386 24.6067 139.019 23.7137 139.019 22.675C139.019 21.611 139.386 20.7117 140.121 19.977C140.868 19.2297 141.761 18.856 142.8 18.856C143.851 18.856 144.744 19.2297 145.479 19.977C146.226 20.7117 146.6 21.611 146.6 22.675C146.6 23.7137 146.226 24.6067 145.479 25.354C144.744 26.0887 143.851 26.456 142.8 26.456Z" fill="white"/>
<path d="M142.8 26.456C141.761 26.456 140.868 26.0887 140.121 25.354C139.386 24.6067 139.019 23.7137 139.019 22.675C139.019 21.611 139.386 20.7117 140.121 19.977C140.868 19.2297 141.761 18.856 142.8 18.856C143.851 18.856 144.744 19.2297 145.479 19.977C146.226 20.7117 146.6 21.611 146.6 22.675C146.6 23.7137 146.226 24.6067 145.479 25.354C144.744 26.0887 143.851 26.456 142.8 26.456Z" fill="#D2F400"/>
</svg>
