<svg width="105" height="79" viewBox="0 0 105 79" fill="none" xmlns="http://www.w3.org/2000/svg">
<path d="M95.1562 79H9.84375C4.40713 79 0 74.5789 0 69.125V9.875C0 4.42112 4.40713 0 9.84375 0H95.1562C100.593 0 105 4.42112 105 9.875V69.125C105 74.5789 100.593 79 95.1562 79ZM22.9688 11.5208C16.6261 11.5208 11.4844 16.6789 11.4844 23.0417C11.4844 29.4045 16.6261 34.5625 22.9688 34.5625C29.3114 34.5625 34.4531 29.4045 34.4531 23.0417C34.4531 16.6789 29.3114 11.5208 22.9688 11.5208ZM13.125 65.8333H91.875V42.7917L73.9276 24.7873C72.9666 23.8232 71.4084 23.8232 70.4472 24.7873L42.6562 52.6667L31.2713 41.2456C30.3103 40.2816 28.7522 40.2816 27.791 41.2456L13.125 55.9583V65.8333Z" fill="black"/>
</svg>
