<svg width="33" height="44" viewBox="0 0 33 44" fill="none" xmlns="http://www.w3.org/2000/svg">
<path d="M19.25 11.6875V0H2.0625C0.919531 0 0 0.919531 0 2.0625V41.9375C0 43.0805 0.919531 44 2.0625 44H30.9375C32.0805 44 33 43.0805 33 41.9375V13.75H21.3125C20.1781 13.75 19.25 12.8219 19.25 11.6875ZM24.8514 30.2509H19.25V37.1259C19.25 37.8855 18.6347 38.5009 17.875 38.5009H15.125C14.3653 38.5009 13.75 37.8855 13.75 37.1259V30.2509H8.14859C6.92141 30.2509 6.30867 28.765 7.18008 27.8996L15.4662 19.6754C16.0377 19.1073 16.9606 19.1073 17.5321 19.6754L25.8182 27.8996C26.6905 28.765 26.0786 30.2509 24.8514 30.2509ZM32.3984 9.02344L23.9852 0.601562C23.5984 0.214844 23.0742 0 22.5242 0H22V11H33V10.4758C33 9.93437 32.7852 9.41016 32.3984 9.02344Z" fill="black"/>
</svg>
